<svg width="1200" height="320" viewBox="0 0 1200 320" fill="none" xmlns="http://www.w3.org/2000/svg" role="img" aria-label="Andrey Oliveira Ś Desenvolvedor Full Stack Jr.">
  <defs>
    <linearGradient id="paper" x1="0" y1="0" x2="0" y2="1">
      <stop offset="0" stop-color="#0D1117"/>
      <stop offset="1" stop-color="#0A0D12"/>
    </linearGradient>
    <linearGradient id="brass" x1="0" y1="0" x2="1" y2="0">
      <stop offset="0" stop-color="#E3B341"/>
      <stop offset="0.5" stop-color="#D4A82E"/>
      <stop offset="1" stop-color="#C7902B"/>
    </linearGradient>
    <linearGradient id="brassFade" x1="0" y1="0" x2="1" y2="0">
      <stop offset="0" stop-color="#E3B341" stop-opacity="0.15"/>
      <stop offset="1" stop-color="#E3B341" stop-opacity="0"/>
    </linearGradient>
    <pattern id="grid" width="32" height="32" patternUnits="userSpaceOnUse">
      <path d="M32 0H0V32" fill="none" stroke="#161B22" stroke-width="1"/>
    </pattern>
  </defs>

  <rect width="1200" height="320" rx="14" fill="url(#paper)"/>
  <rect width="1200" height="320" rx="14" fill="url(#grid)"/>
  <rect x="0.75" y="0.75" width="1198.5" height="318.5" rx="13.25" fill="none" stroke="#21262D" stroke-width="1.5"/>

  <rect x="72" y="248" width="420" height="1" fill="url(#brassFade)"/>

  <g stroke="#30363D" stroke-width="1.5">
    <path d="M40 28 H64 M40 28 V52"/>
    <path d="M1160 28 H1136 M1160 28 V52"/>
    <path d="M40 292 H64 M40 292 V268"/>
    <path d="M1160 292 H1136 M1160 292 V268"/>
  </g>

  <text x="72" y="72" font-family="'SFMono-Regular', 'Consolas', monospace" font-size="12" letter-spacing="5" fill="#8B949E">DESENVOLVEDOR DE SOFTWARE</text>

  <text x="70" y="148" font-family="'Segoe UI', Helvetica, Arial, sans-serif" font-size="68" font-weight="600" letter-spacing="5" fill="#E6EDF3">Andrey Oliveira</text>

  <line x1="72" y1="172" x2="480" y2="172" stroke="url(#brass)" stroke-width="3" stroke-linecap="round"/>

  <text x="72" y="212" font-family="'Segoe UI', Helvetica, Arial, sans-serif" font-size="20" font-weight="400" fill="#ADBAC7">Full Stack Jr. &nbsp;&#183;&nbsp; TransińŃo para Backend Java</text>

  <g transform="translate(72, 236)">
    <rect x="0" y="0" width="148" height="32" rx="6" fill="#161B22" stroke="#30363D" stroke-width="1"/>
    <circle cx="16" cy="16" r="4" fill="#3FB950"/>
    <text x="30" y="21" font-family="'SFMono-Regular', 'Consolas', monospace" font-size="12" fill="#8B949E">disponĒvel para oportunidades</text>
  </g>

  <g transform="translate(1012, 72)">
    <rect x="0" y="0" width="116" height="116" rx="10" fill="#161B22" stroke="#30363D" stroke-width="1.5"/>
    <line x1="0" y1="58" x2="116" y2="58" stroke="#21262D" stroke-width="1"/>
    <line x1="58" y1="0" x2="58" y2="116" stroke="#21262D" stroke-width="1"/>
    <text x="58" y="74" text-anchor="middle" font-family="'Segoe UI', Helvetica, Arial, sans-serif" font-size="48" font-weight="600" letter-spacing="1" fill="#E6EDF3">AO</text>
    <circle cx="58" cy="58" r="54" fill="none" stroke="url(#brass)" stroke-width="1.5" stroke-dasharray="5 9" opacity="0.55"/>
  </g>
</svg>
