<svg width="1200" height="320" viewBox="0 0 1200 320" fill="none" xmlns="http://www.w3.org/2000/svg">
  <defs>
    <linearGradient id="brass" x1="0" y1="0" x2="1" y2="1">
      <stop offset="0" stop-color="#E3B341"/>
      <stop offset="1" stop-color="#B07E23"/>
    </linearGradient>
  </defs>

  <rect width="1200" height="320" fill="#000000"/>

  <!-- container principal -->
  <g>
    <rect x="24" y="24" width="1152" height="272" rx="14" fill="#0A0A0B" stroke="#1E1E22" stroke-width="1.5"/>
    <path d="M44 40 H70 M44 40 V66" stroke="#8A6D2A" stroke-width="2" stroke-linecap="round"/>
    <path d="M1156 40 H1130 M1156 40 V66" stroke="#8A6D2A" stroke-width="2" stroke-linecap="round"/>
    <path d="M44 276 H70 M44 276 V250" stroke="#8A6D2A" stroke-width="2" stroke-linecap="round"/>
    <path d="M1156 276 H1130 M1156 276 V250" stroke="#8A6D2A" stroke-width="2" stroke-linecap="round"/>

    <text x="64" y="72" font-family="Segoe UI, Helvetica, Arial, sans-serif" font-size="22" font-weight="600" fill="#F2F2F3">Contato</text>
    <line x1="64" y1="84" x2="156" y2="84" stroke="#E3B341" stroke-width="2.5" stroke-linecap="round"/>
    <text x="64" y="114" font-family="Segoe UI, Helvetica, Arial, sans-serif" font-size="14.5" fill="#6E7076" font-style="italic">Aberto a conversas sobre oportunidades, projetos e troca de conhecimento.</text>
  </g>

  <!-- card email -->
  <g transform="translate(24, 136)">
    <rect width="276" height="160" rx="10" fill="#0A0A0B" stroke="#1E1E22" stroke-width="1"/>
    <rect width="276" height="3" rx="1.5" fill="url(#brass)"/>
    <g transform="translate(16, 26)">
      <rect width="36" height="36" rx="8" fill="#121214" stroke="#2A2210" stroke-width="1"/>
      <path d="M10 13 H26 V23 H10 Z M10 13 L18 19 L26 13" stroke="#E3B341" stroke-width="1.6" stroke-linejoin="round" fill="none"/>
    </g>
    <text x="60" y="46" font-family="SFMono-Regular, Consolas, monospace" font-size="10" font-weight="600" letter-spacing="2.5" fill="#E3B341">EMAIL</text>
    <text x="60" y="64" font-family="SFMono-Regular, Consolas, monospace" font-size="9" fill="#6E7076">resposta em ate 24h</text>
    <text x="16" y="102" font-family="Segoe UI, Helvetica, Arial, sans-serif" font-size="12.5" font-weight="600" fill="#F2F2F3">andreyoliveira72005</text>
    <text x="16" y="124" font-family="Segoe UI, Helvetica, Arial, sans-serif" font-size="12.5" fill="#B8BCC2">@gmail.com</text>
  </g>

  <!-- card linkedin -->
  <g transform="translate(316, 136)">
    <rect width="276" height="160" rx="10" fill="#0A0A0B" stroke="#1E1E22" stroke-width="1"/>
    <rect width="276" height="3" rx="1.5" fill="#5B5B60"/>
    <g transform="translate(16, 26)">
      <rect width="36" height="36" rx="8" fill="#121214" stroke="#1E1E22" stroke-width="1"/>
      <rect x="10" y="12" width="6" height="16" rx="1" fill="#ADBAC7"/>
      <circle cx="13" cy="9" r="3" fill="#ADBAC7"/>
      <path d="M20 28 V18 C20 14.5 22.5 12 26 12 C29.5 12 32 14.5 32 18 V28" stroke="#ADBAC7" stroke-width="2.2" stroke-linecap="round" fill="none"/>
    </g>
    <text x="60" y="46" font-family="SFMono-Regular, Consolas, monospace" font-size="10" font-weight="600" letter-spacing="2.5" fill="#ADBAC7">LINKEDIN</text>
    <text x="60" y="64" font-family="SFMono-Regular, Consolas, monospace" font-size="9" fill="#6E7076">perfil profissional</text>
    <text x="16" y="102" font-family="Segoe UI, Helvetica, Arial, sans-serif" font-size="12.5" font-weight="600" fill="#F2F2F3">andrey-oliveira-dev</text>
    <text x="16" y="124" font-family="Segoe UI, Helvetica, Arial, sans-serif" font-size="12.5" fill="#6E7076">/in/andrey-oliveira-dev</text>
  </g>

  <!-- card whatsapp -->
  <g transform="translate(608, 136)">
    <rect width="276" height="160" rx="10" fill="#0A0A0B" stroke="#1E1E22" stroke-width="1"/>
    <rect width="276" height="3" rx="1.5" fill="#5B5B60"/>
    <g transform="translate(16, 26)">
      <rect width="36" height="36" rx="8" fill="#121214" stroke="#1A2A1A" stroke-width="1"/>
      <path d="M18 8 C11.4 8 6 13.2 6 19.6 C6 22.4 7 25 8.6 27 L6 32 L11.2 30.4 C13.6 31.8 16.2 32.6 18 32.6 C24.6 32.6 30 27.4 30 19.6 C30 13.2 24.6 8 18 8 Z" stroke="#25D366" stroke-width="1.4" fill="none"/>
      <path d="M14 17 L16.5 19.5 L22 14" stroke="#25D366" stroke-width="1.6" stroke-linecap="round" stroke-linejoin="round" fill="none"/>
    </g>
    <text x="60" y="46" font-family="SFMono-Regular, Consolas, monospace" font-size="10" font-weight="600" letter-spacing="2.5" fill="#ADBAC7">WHATSAPP</text>
    <text x="60" y="64" font-family="SFMono-Regular, Consolas, monospace" font-size="9" fill="#6E7076">mensagem direta</text>
    <text x="16" y="102" font-family="Segoe UI, Helvetica, Arial, sans-serif" font-size="12.5" font-weight="600" fill="#F2F2F3">+55 (22) 99756-8439</text>
    <text x="16" y="124" font-family="Segoe UI, Helvetica, Arial, sans-serif" font-size="12.5" fill="#6E7076">clique para conversar</text>
  </g>

  <!-- card portfolio -->
  <g transform="translate(900, 136)">
    <rect width="276" height="160" rx="10" fill="#0A0A0B" stroke="#1E1E22" stroke-width="1"/>
    <rect width="276" height="3" rx="1.5" fill="#5B5B60"/>
    <g transform="translate(16, 26)">
      <rect width="36" height="36" rx="8" fill="#121214" stroke="#1E1E22" stroke-width="1"/>
      <circle cx="18" cy="18" r="10" stroke="#ADBAC7" stroke-width="1.4" fill="none"/>
      <ellipse cx="18" cy="18" rx="4" ry="10" stroke="#ADBAC7" stroke-width="1.2" fill="none"/>
      <line x1="8" y1="18" x2="28" y2="18" stroke="#ADBAC7" stroke-width="1.2"/>
      <line x1="10" y1="13" x2="26" y2="13" stroke="#ADBAC7" stroke-width="1"/>
      <line x1="10" y1="23" x2="26" y2="23" stroke="#ADBAC7" stroke-width="1"/>
    </g>
    <text x="60" y="46" font-family="SFMono-Regular, Consolas, monospace" font-size="10" font-weight="600" letter-spacing="2.5" fill="#ADBAC7">PORTFOLIO</text>
    <text x="60" y="64" font-family="SFMono-Regular, Consolas, monospace" font-size="9" fill="#6E7076">projetos e cases</text>
    <text x="16" y="102" font-family="Segoe UI, Helvetica, Arial, sans-serif" font-size="12.5" font-weight="600" fill="#F2F2F3">andreyodev.github.io</text>
    <text x="16" y="124" font-family="Segoe UI, Helvetica, Arial, sans-serif" font-size="12.5" fill="#6E7076">veja meu trabalho</text>
  </g>
</svg>
