<svg width="1200" height="276" viewBox="0 0 1200 276" fill="none" xmlns="http://www.w3.org/2000/svg">
  <defs>
    <linearGradient id="brass" x1="0" y1="0" x2="1" y2="1">
      <stop offset="0" stop-color="#92732D"/>
      <stop offset="1" stop-color="#6B5420"/>
    </linearGradient>
  </defs>

  <rect width="1200" height="276" fill="#000000"/>

  <g>
    <rect x="24" y="24" width="1152" height="228" rx="14" fill="#0A0A0B" stroke="#1E1E22" stroke-width="1.5"/>
    <path d="M44 40 H70 M44 40 V66" stroke="#92732D" stroke-width="2" stroke-linecap="round"/>
    <path d="M1156 40 H1130 M1156 40 V66" stroke="#92732D" stroke-width="2" stroke-linecap="round"/>
    <path d="M44 236 H70 M44 236 V210" stroke="#92732D" stroke-width="2" stroke-linecap="round"/>
    <path d="M1156 236 H1130 M1156 236 V210" stroke="#92732D" stroke-width="2" stroke-linecap="round"/>

    <text x="64" y="72" font-family="Segoe UI, Helvetica, Arial, sans-serif" font-size="22" font-weight="600" fill="#F2F2F3">Linguagens</text>
    <line x1="64" y1="84" x2="186" y2="84" stroke="#92732D" stroke-width="2.5" stroke-linecap="round"/>
    <text x="64" y="114" font-family="Segoe UI, Helvetica, Arial, sans-serif" font-size="14.5" fill="#6E7076" font-style="italic">Distribuicao por repositorios publicos.</text>
  </g>

  <rect x="64" y="136" width="1048" height="10" rx="5" fill="#1A1A1C"/>
  <g transform="translate(64, 136)">
    <rect x="0.00" y="0" width="959.01" height="10" rx="5" fill="#3572A5"/>
    <rect x="959.01" y="0" width="44.46" height="10" rx="5" fill="#3178c6"/>
    <rect x="1003.47" y="0" width="24.97" height="10" rx="5" fill="#f1e05a"/>
    <rect x="1028.45" y="0" width="7.45" height="10" rx="5" fill="#DA5B0B"/>
    <rect x="1035.89" y="0" width="6.06" height="10" rx="5" fill="#012456"/>
    <rect x="1041.96" y="0" width="2.63" height="10" rx="5" fill="#f34b7d"/>
  </g>
  
  <circle cx="64" cy="184" r="5" fill="#3572A5"/>
  <text x="80" y="188" font-family="Segoe UI, Helvetica, Arial, sans-serif" font-size="14" fill="#F2F2F3">Python</text>
  <text x="576" y="188" font-family="SFMono-Regular, Consolas, monospace" font-size="12" fill="#92732D" text-anchor="end">91,51%</text>
  <circle cx="588" cy="184" r="5" fill="#3178c6"/>
  <text x="604" y="188" font-family="Segoe UI, Helvetica, Arial, sans-serif" font-size="14" fill="#F2F2F3">TypeScript</text>
  <text x="1100" y="188" font-family="SFMono-Regular, Consolas, monospace" font-size="12" fill="#92732D" text-anchor="end">4,24%</text>
  <circle cx="64" cy="214" r="5" fill="#f1e05a"/>
  <text x="80" y="218" font-family="Segoe UI, Helvetica, Arial, sans-serif" font-size="14" fill="#F2F2F3">JavaScript</text>
  <text x="576" y="218" font-family="SFMono-Regular, Consolas, monospace" font-size="12" fill="#92732D" text-anchor="end">2,38%</text>
  <circle cx="588" cy="214" r="5" fill="#DA5B0B"/>
  <text x="604" y="218" font-family="Segoe UI, Helvetica, Arial, sans-serif" font-size="14" fill="#F2F2F3">Jupyter Notebook</text>
  <text x="1100" y="218" font-family="SFMono-Regular, Consolas, monospace" font-size="12" fill="#92732D" text-anchor="end">0,71%</text>
  <circle cx="64" cy="244" r="5" fill="#012456"/>
  <text x="80" y="248" font-family="Segoe UI, Helvetica, Arial, sans-serif" font-size="14" fill="#F2F2F3">PowerShell</text>
  <text x="576" y="248" font-family="SFMono-Regular, Consolas, monospace" font-size="12" fill="#92732D" text-anchor="end">0,58%</text>
  <circle cx="588" cy="244" r="5" fill="#f34b7d"/>
  <text x="604" y="248" font-family="Segoe UI, Helvetica, Arial, sans-serif" font-size="14" fill="#F2F2F3">C++</text>
  <text x="1100" y="248" font-family="SFMono-Regular, Consolas, monospace" font-size="12" fill="#92732D" text-anchor="end">0,25%</text>
</svg>
