<svg width="1200" height="278" viewBox="0 0 1200 278" fill="none" xmlns="http://www.w3.org/2000/svg">
  <defs>
    <linearGradient id="brass" x1="0" y1="0" x2="1" y2="1">
      <stop offset="0" stop-color="#92732D"/>
      <stop offset="1" stop-color="#6B5420"/>
    </linearGradient>
  </defs>

  <rect width="1200" height="278" fill="#000000"/>

  <g>
    <rect x="24" y="24" width="1152" height="230" rx="14" fill="#0A0A0B" stroke="#1E1E22" stroke-width="1.5"/>
    <path d="M44 40 H70 M44 40 V66" stroke="#92732D" stroke-width="2" stroke-linecap="round"/>
    <path d="M1156 40 H1130 M1156 40 V66" stroke="#92732D" stroke-width="2" stroke-linecap="round"/>
    <path d="M44 238 H70 M44 238 V212" stroke="#92732D" stroke-width="2" stroke-linecap="round"/>
    <path d="M1156 238 H1130 M1156 238 V212" stroke="#92732D" stroke-width="2" stroke-linecap="round"/>

    <text x="64" y="72" font-family="Segoe UI, Helvetica, Arial, sans-serif" font-size="22" font-weight="600" fill="#F2F2F3">Linguagens</text>
    <line x1="64" y1="84" x2="186" y2="84" stroke="#92732D" stroke-width="2.5" stroke-linecap="round"/>
    <text x="64" y="114" font-family="Segoe UI, Helvetica, Arial, sans-serif" font-size="14.5" fill="#6E7076" font-style="italic">Distribuicao por repositorios publicos.</text>
  </g>

  <rect x="64" y="136" width="1048" height="10" rx="5" fill="#1A1A1C"/>
  <g transform="translate(64, 136)">
    <rect x="0" y="0" width="673.36" height="10" rx="5" fill="#3572A5"/>
    <rect x="673.36" y="0" width="267.02" height="10" rx="5" fill="#3178c6"/>
    <rect x="940.38" y="0" width="85.52" height="10" rx="5" fill="#f1e05a"/>
    <rect x="1025.90" y="0" width="10.17" height="10" rx="5" fill="#336790"/>
    <rect x="1036.07" y="0" width="6.50" height="10" rx="5" fill="#012456"/>
    <rect x="1042.57" y="0" width="5.43" height="10" rx="5" fill="#DA5B0B"/>
  </g>

  <circle cx="64" cy="180" r="5" fill="#3572A5"/>
  <text x="80" y="184" font-family="Segoe UI, Helvetica, Arial, sans-serif" font-size="14" fill="#F2F2F3">Python</text>
  <text x="512" y="184" font-family="SFMono-Regular, Consolas, monospace" font-size="12" fill="#92732D" text-anchor="end">64,28%</text>

  <circle cx="588" cy="180" r="5" fill="#3178c6"/>
  <text x="604" y="184" font-family="Segoe UI, Helvetica, Arial, sans-serif" font-size="14" fill="#F2F2F3">TypeScript</text>
  <text x="1100" y="184" font-family="SFMono-Regular, Consolas, monospace" font-size="12" fill="#92732D" text-anchor="end">25,48%</text>

  <circle cx="64" cy="210" r="5" fill="#f1e05a"/>
  <text x="80" y="214" font-family="Segoe UI, Helvetica, Arial, sans-serif" font-size="14" fill="#F2F2F3">JavaScript</text>
  <text x="512" y="214" font-family="SFMono-Regular, Consolas, monospace" font-size="12" fill="#92732D" text-anchor="end">8,16%</text>

  <circle cx="588" cy="210" r="5" fill="#336790"/>
  <text x="604" y="214" font-family="Segoe UI, Helvetica, Arial, sans-serif" font-size="14" fill="#F2F2F3">PLpgSQL</text>
  <text x="1100" y="214" font-family="SFMono-Regular, Consolas, monospace" font-size="12" fill="#92732D" text-anchor="end">0,97%</text>

  <circle cx="64" cy="240" r="5" fill="#012456"/>
  <text x="80" y="244" font-family="Segoe UI, Helvetica, Arial, sans-serif" font-size="14" fill="#F2F2F3">PowerShell</text>
  <text x="512" y="244" font-family="SFMono-Regular, Consolas, monospace" font-size="12" fill="#92732D" text-anchor="end">0,62%</text>

  <circle cx="588" cy="240" r="5" fill="#DA5B0B"/>
  <text x="604" y="244" font-family="Segoe UI, Helvetica, Arial, sans-serif" font-size="14" fill="#F2F2F3">Jupyter Notebook</text>
  <text x="1100" y="244" font-family="SFMono-Regular, Consolas, monospace" font-size="12" fill="#92732D" text-anchor="end">0,49%</text>
</svg>
